<mxfile host="app.diagrams.net" modified="2023-08-16T19:01:15.837Z" agent="Mozilla/5.0 (Windows NT 10.0; Win64; x64) AppleWebKit/537.36 (KHTML, like Gecko) Chrome/115.0.0.0 Safari/537.36" version="21.5.0" etag="uNj81CPL3zsF7NQBVgrm" type="github">
  <diagram name="Page-1" id="IadgFu0Y1p3FSCfEoN2d">
    <mxGraphModel>
      <root>
        <mxCell id="0" />
        <mxCell id="1" parent="0" />
      </root>
    </mxGraphModel>
  </diagram>
</mxfile>
